<?xml version="1.0" encoding="UTF-8"?>
<svg xmlns="http://www.w3.org/2000/svg" width="820.0" height="560.0" viewBox="0 0 820.0 560.0" style="background:#fff;">
<defs>
  <marker id="arrow-open" markerWidth="10" markerHeight="7" refX="9" refY="3.5" orient="auto">
    <polygon points="0 0, 10 3.5, 0 7" fill="#c0392b"/>
  </marker>
  <marker id="arrow-closed" markerWidth="10" markerHeight="7" refX="9" refY="3.5" orient="auto">
    <polygon points="0 0, 10 3.5, 0 7" fill="#555"/>
  </marker>
  <marker id="arrow-open-start" markerWidth="10" markerHeight="7" refX="1" refY="3.5" orient="auto-start-reverse">
    <polygon points="0 0, 10 3.5, 0 7" fill="#c0392b"/>
  </marker>
  <marker id="arrow-closed-start" markerWidth="10" markerHeight="7" refX="1" refY="3.5" orient="auto-start-reverse">
    <polygon points="0 0, 10 3.5, 0 7" fill="#555"/>
  </marker>
</defs>
<rect x="40.0" y="40.0" width="300" height="200" fill="none" stroke="#7f8c8d" stroke-width="1.5" stroke-dasharray="8 4" rx="4"/>
<rect x="440.0" y="40.0" width="340" height="200" fill="none" stroke="#7f8c8d" stroke-width="1.5" stroke-dasharray="8 4" rx="4"/>
<rect x="40.0" y="320.0" width="740" height="200" fill="none" stroke="#7f8c8d" stroke-width="1.5" stroke-dasharray="8 4" rx="4"/>
<rect x="80.0" y="100.0" width="160" height="80" fill="#fdecea" stroke="#c0392b" stroke-width="1.5" rx="3"/>
<text x="160.0" y="140.0" font-size="11" fill="#212529" text-anchor="middle" dominant-baseline="middle" font-family="sans-serif">Customer Browser</text>
<rect x="480.0" y="100.0" width="160" height="80" fill="#fdecea" stroke="#c0392b" stroke-width="1.5" rx="3"/>
<text x="560.0" y="140.0" font-size="11" fill="#212529" text-anchor="middle" dominant-baseline="middle" font-family="sans-serif">External IdP (OAuth2)</text>
<ellipse cx="340.0" cy="420.0" rx="50" ry="50" fill="#fdecea" stroke="#c0392b" stroke-width="1.5"/>
<text x="340.0" y="405.7" font-size="11" fill="#212529" text-anchor="middle" dominant-baseline="middle" font-family="sans-serif">Web</text>
<text x="340.0" y="420.0" font-size="11" fill="#212529" text-anchor="middle" dominant-baseline="middle" font-family="sans-serif">Frontend</text>
<text x="340.0" y="434.3" font-size="11" fill="#212529" text-anchor="middle" dominant-baseline="middle" font-family="sans-serif">(SPA)</text>
<polyline points="185.7,180.0 313.0,377.9" fill="none" stroke="#c0392b" stroke-width="1.5" marker-end="url(#arrow-open)" marker-start="url(#arrow-open-start)"/>
<rect x="204.9" y="263.4" width="112.4" height="14" rx="3" fill="white" fill-opacity="0.85" stroke="#c0392b" stroke-width="0.5"/>
<text x="261.1" y="271.4" font-size="10" fill="#c0392b" text-anchor="middle" font-family="sans-serif" dominant-baseline="middle">HTTPS Page Request</text>
<polyline points="370.9,380.7 528.6,180.0" fill="none" stroke="#c0392b" stroke-width="1.5" marker-end="url(#arrow-open)" marker-start="url(#arrow-open-start)"/>
<rect x="388.3" y="263.7" width="100.8" height="14" rx="3" fill="white" fill-opacity="0.85" stroke="#c0392b" stroke-width="0.5"/>
<text x="438.7" y="271.7" font-size="10" fill="#c0392b" text-anchor="middle" font-family="sans-serif" dominant-baseline="middle">OAuth2 PKCE Flow</text>
</svg>