<?xml version="1.0" encoding="UTF-8"?>
<svg xmlns="http://www.w3.org/2000/svg" width="920.0" height="580.0" viewBox="0 0 920.0 580.0" style="background:#fff;">
<defs>
  <marker id="arrow-open" markerWidth="10" markerHeight="7" refX="9" refY="3.5" orient="auto">
    <polygon points="0 0, 10 3.5, 0 7" fill="#c0392b"/>
  </marker>
  <marker id="arrow-closed" markerWidth="10" markerHeight="7" refX="9" refY="3.5" orient="auto">
    <polygon points="0 0, 10 3.5, 0 7" fill="#555"/>
  </marker>
  <marker id="arrow-open-start" markerWidth="10" markerHeight="7" refX="1" refY="3.5" orient="auto-start-reverse">
    <polygon points="0 0, 10 3.5, 0 7" fill="#c0392b"/>
  </marker>
  <marker id="arrow-closed-start" markerWidth="10" markerHeight="7" refX="1" refY="3.5" orient="auto-start-reverse">
    <polygon points="0 0, 10 3.5, 0 7" fill="#555"/>
  </marker>
</defs>
<rect x="280.0" y="40.0" width="600" height="500" fill="none" stroke="#7f8c8d" stroke-width="1.5" stroke-dasharray="8 4" rx="4"/>
<rect x="720.0" y="220.0" width="160" height="80" fill="#f8f9fa" stroke="#555" stroke-width="1.5" rx="3"/>
<text x="800.0" y="252.8" font-size="11" fill="#212529" text-anchor="middle" dominant-baseline="middle" font-family="sans-serif">Payment Processor</text>
<text x="800.0" y="267.1" font-size="11" fill="#212529" text-anchor="middle" dominant-baseline="middle" font-family="sans-serif">(Stripe)</text>
<rect x="720.0" y="400.0" width="160" height="80" fill="#f8f9fa" stroke="#555" stroke-width="1.5" rx="3"/>
<text x="800.0" y="440.0" font-size="11" fill="#212529" text-anchor="middle" dominant-baseline="middle" font-family="sans-serif">Fraud Detection API</text>
<ellipse cx="90.0" cy="270.0" rx="50" ry="50" fill="#fdecea" stroke="#c0392b" stroke-width="1.5"/>
<text x="90.0" y="262.9" font-size="11" fill="#212529" text-anchor="middle" dominant-baseline="middle" font-family="sans-serif">Checkout</text>
<text x="90.0" y="277.2" font-size="11" fill="#212529" text-anchor="middle" dominant-baseline="middle" font-family="sans-serif">Service</text>
<ellipse cx="450.0" cy="270.0" rx="50" ry="50" fill="#fdecea" stroke="#c0392b" stroke-width="1.5"/>
<text x="450.0" y="262.9" font-size="11" fill="#212529" text-anchor="middle" dominant-baseline="middle" font-family="sans-serif">Payment</text>
<text x="450.0" y="277.2" font-size="11" fill="#212529" text-anchor="middle" dominant-baseline="middle" font-family="sans-serif">Service</text>
<rect x="400.0" y="400.0" width="160" height="80" fill="#fdecea" stroke="#c0392b" stroke-width="1.5"/>
<line x1="400.0" y1="408.0" x2="560.0" y2="408.0" stroke="#c0392b" stroke-width="1"/>
<line x1="400.0" y1="472.0" x2="560.0" y2="472.0" stroke="#c0392b" stroke-width="1"/>
<text x="480.0" y="440.0" font-size="11" fill="#212529" text-anchor="middle" dominant-baseline="middle" font-family="sans-serif">Payment Token Vault</text>
<rect x="40.0" y="440.0" width="160" height="80" fill="#f8f9fa" stroke="#555" stroke-width="1.5"/>
<line x1="40.0" y1="448.0" x2="200.0" y2="448.0" stroke="#555" stroke-width="1"/>
<line x1="40.0" y1="512.0" x2="200.0" y2="512.0" stroke="#555" stroke-width="1"/>
<text x="120.0" y="480.0" font-size="11" fill="#212529" text-anchor="middle" dominant-baseline="middle" font-family="sans-serif">Payment Audit Log</text>
<polyline points="140.0,270.0 400.0,270.0" fill="none" stroke="#c0392b" stroke-width="1.5" marker-end="url(#arrow-open)" marker-start="url(#arrow-open-start)"/>
<rect x="202.2" y="248.0" width="135.6" height="14" rx="3" fill="white" fill-opacity="0.85" stroke="#c0392b" stroke-width="0.5"/>
<text x="270.0" y="256.0" font-size="10" fill="#c0392b" text-anchor="middle" font-family="sans-serif" dominant-baseline="middle">Payment Request (gRPC)</text>
<polyline points="500.0,268.6 720.0,262.3" fill="none" stroke="#c0392b" stroke-width="1.5" marker-end="url(#arrow-open)" marker-start="url(#arrow-open-start)"/>
<rect x="553.4" y="243.4" width="112.4" height="14" rx="3" fill="white" fill-opacity="0.85" stroke="#c0392b" stroke-width="0.5"/>
<text x="609.6" y="251.4" font-size="10" fill="#c0392b" text-anchor="middle" font-family="sans-serif" dominant-baseline="middle">Stripe API (HTTPS)</text>
<polyline points="458.7,319.2 472.9,400.0" fill="none" stroke="#555" stroke-width="1.5" marker-end="url(#arrow-closed)" marker-start="url(#arrow-closed-start)"/>
<rect x="429.2" y="349.2" width="100.8" height="14" rx="3" fill="white" fill-opacity="0.85" stroke="#555" stroke-width="0.5"/>
<text x="479.6" y="357.2" font-size="10" fill="#555" text-anchor="middle" font-family="sans-serif" dominant-baseline="middle">Token Read/Write</text>
<polyline points="138.6,281.6 720.0,420.8" fill="none" stroke="#c0392b" stroke-width="1.5" marker-end="url(#arrow-open)" marker-start="none"/>
<rect x="373.5" y="329.6" width="118.2" height="14" rx="3" fill="white" fill-opacity="0.85" stroke="#c0392b" stroke-width="0.5"/>
<text x="432.6" y="337.6" font-size="10" fill="#c0392b" text-anchor="middle" font-family="sans-serif" dominant-baseline="middle">Fraud Score Request</text>
<polyline points="97.1,319.5 114.3,440.0" fill="none" stroke="#555" stroke-width="1.5" marker-end="url(#arrow-closed)" marker-start="none"/>
<rect x="66.2" y="369.8" width="106.6" height="14" rx="3" fill="white" fill-opacity="0.85" stroke="#555" stroke-width="0.5"/>
<text x="119.5" y="377.8" font-size="10" fill="#555" text-anchor="middle" font-family="sans-serif" dominant-baseline="middle">Audit Event Write</text>
</svg>